<svg id="Capa_1" data-name="Capa 1" xmlns="http://www.w3.org/2000/svg" viewBox="0 0 1366 768"><defs><style>.cls-1{fill:#62d5f9;}</style></defs><title>Redes</title><path class="cls-1" d="M683,186.72c-108.74,0-197.25,88.51-197.25,197.32S574.23,581.28,683,581.28,880.28,492.77,880.28,384,791.76,186.72,683,186.72Zm88,152.16c.06,2,.06,3.92.06,5.92,0,60-45.62,129.15-129.15,129.15a127.75,127.75,0,0,1-69.62-20.42,84.88,84.88,0,0,0,10.83.67,91,91,0,0,0,56.4-19.42,45.47,45.47,0,0,1-42.36-31.59,40.21,40.21,0,0,0,8.51.86,48,48,0,0,0,12-1.59A45.45,45.45,0,0,1,581.15,358a2.07,2.07,0,0,1,.06-.6A45,45,0,0,0,601.83,363a45.41,45.41,0,0,1-14.16-60.59,129.18,129.18,0,0,0,93.63,47.42,44.06,44.06,0,0,1-1.19-10.31,45.45,45.45,0,0,1,78.54-31.12,90,90,0,0,0,28.86-11,45.72,45.72,0,0,1-20,25.14,90.18,90.18,0,0,0,26.07-7.18A91.63,91.63,0,0,1,771,338.88Zm0,0"/></svg>