<svg id="Capa_1" data-name="Capa 1" xmlns="http://www.w3.org/2000/svg" viewBox="0 0 1366 768"><defs><style>.cls-1{fill:#fff;}</style></defs><title>Redes</title><path d="M683.23,581.28c-109,.08-197.5-88.3-197.51-197.25s88.41-197.36,197.44-197.31,197.23,88.56,197.12,197.62C880.17,492.9,791.83,581.2,683.23,581.28Zm123.5-233.57H558.85c-.15,2.7-.39,5-.39,7.21q0,53.52,0,107.05c0,12.46,4.09,16.49,16.72,16.51q44.28.07,88.57,0,63.93,0,127.85,0c10.65,0,15.81-4.11,15.86-13.44.17-38.25,0-76.51,0-114.76A11.11,11.11,0,0,0,806.73,347.71Zm.83-13.76c0-9.36,0-17.8,0-26.25,0-14.62-3.54-18.19-18.11-18.19H576.25c-2,0-4.11,0-6.15.16-6.19.5-10.68,4.07-11.06,9.91-.73,11.36-.21,22.8-.21,34.37Z"/><path class="cls-1" d="M806.73,347.71a11.11,11.11,0,0,1,.73,2.56c0,38.25.17,76.51,0,114.76-.05,9.33-5.21,13.43-15.86,13.44q-63.92.07-127.85,0-44.28,0-88.57,0c-12.63,0-16.71-4.05-16.72-16.51q-.06-53.52,0-107c0-2.26.24-4.51.39-7.21Z"/><path d="M743.24,318.26c-13.85,0-27.69,0-41.53,0-4.8,0-9.24-.93-9.1-6.74.12-5.21,4.18-6.28,8.78-6.27q42.3.11,84.6,0c4.64,0,8.54,1.11,8.69,6.36s-3.74,6.65-8.37,6.64Q764.77,318.21,743.24,318.26Z"/><circle cx="602.54" cy="311.77" r="5.24"/><circle cx="590.12" cy="311.72" r="5.24"/><circle cx="577.69" cy="311.72" r="5.24"/><path d="M575.26,390.76H586.1l9.28,31.68,10.23-31.85h9.1L625,422.44l9.45-31.68h10.68l-15.14,46.56h-9.53l-10.33-31.59-10.41,31.59h-9.45Z"/><path d="M649.77,390.76h10.84l9.28,31.68,10.23-31.85h9.11l10.23,31.85,9.45-31.68h10.68l-15.14,46.56h-9.53l-10.33-31.59-10.41,31.59h-9.45Z"/><path d="M724.26,390.76h10.85l9.28,31.68,10.23-31.85h9.11L774,422.44l9.45-31.68h10.68L779,437.32h-9.53l-10.33-31.59-10.41,31.59h-9.45Z"/></svg>