<svg id="Capa_1" data-name="Capa 1" xmlns="http://www.w3.org/2000/svg" viewBox="0 0 1366 768"><defs><style>.cls-1{fill:#ff5100;}</style></defs><title>Redes</title><path class="cls-1" d="M683,423.47A39.37,39.37,0,1,0,643.46,384,39.55,39.55,0,0,0,683,423.47Zm0,0"/><path class="cls-1" d="M769.22,335.68v-38h-5l-33.05.14.14,38Zm0,0"/><path class="cls-1" d="M683,186.72c-108.74,0-197.25,88.51-197.25,197.25S574.23,581.28,683,581.28,880.28,492.77,880.28,384,791.76,186.72,683,186.72ZM795.16,361v91.9a43.42,43.42,0,0,1-43.36,43.37H614.13a43.45,43.45,0,0,1-43.35-43.37V315.21a43.41,43.41,0,0,1,43.35-43.37H751.8a43.37,43.37,0,0,1,43.36,43.37Zm0,0"/><path class="cls-1" d="M744.35,384a61.39,61.39,0,0,1-122.77,0,62.85,62.85,0,0,1,4.53-23H592.65v91.9a21.43,21.43,0,0,0,21.48,21.48H751.8a21.52,21.52,0,0,0,21.54-21.48V361H739.83a61.63,61.63,0,0,1,4.52,23Zm0,0"/></svg>