<svg id="Capa_1" data-name="Capa 1" xmlns="http://www.w3.org/2000/svg" viewBox="0 0 1350 1080"><defs><style>.cls-1{fill:#63cfe3;}.cls-2{fill:#fff;}</style></defs><title>btn- compra</title><rect class="cls-1" x="105" y="445" width="1140" height="190" rx="9.62"/><path class="cls-2" d="M164.72,513.41l-.4-4a6.32,6.32,0,0,1,1.46-.4c6.21,0,12.41,0,18.62-.09,2.9-.06,7.19,1.13,7.3-3.4s-4.13-3.63-7.08-3.65c-14.13-.05-28.27,0-42.4,0-2.58,0-5.82.38-5.89-3.26-.08-4,3.37-3.62,6.11-3.64,5.81,0,11.61,0,18.05,0-1.19-5.16-2-9.55-3.32-13.77-.35-1.1-2.33-2.17-3.68-2.36-2.71-.39-5.58.23-8.23-.33-1.44-.31-2.56-2.18-3.82-3.34,1.27-1.13,2.46-3.11,3.83-3.24a62.62,62.62,0,0,1,13.41,0c1.61.2,3.74,2.25,4.3,3.9a87.5,87.5,0,0,1,3.45,14c.66,3.95,2.34,5.27,6.46,5.21,16-.26,32.06-.11,48.09-.11q28.7,0,57.39,0c6.43,0,7.24,1.07,5.73,7.36q-5.37,22.33-10.81,44.66c-2.38,9.73-5.79,12.32-16.05,12.32H181.75c-1.38,0-2.76,0-4.14,0-5.28.15-8.29,2.51-8.27,6.47s3,6.41,8.27,6.42q30.76,0,61.53,0c10,0,20,0,30,0,2.63,0,6.43-.78,6.39,3.09,0,1.79-3.14,3.55-4.91,5.38,7.55,7.78,8.48,16.64,1.66,23.34a15.07,15.07,0,0,1-21.73-.56c-6.25-6.77-5-15.85,3.52-23.82H190.51c4.78,3.89,8.45,8.28,7.44,14.17a21.16,21.16,0,0,1-4.82,10.4c-5.69,6.11-15.5,5.43-21.22-.71-6.26-6.72-5.09-15.79,3.36-23.84-7.62-1.89-13-6-12.8-14.29.16-7.1,4.54-11.25,11.49-13.17l-.57-4.54a5.3,5.3,0,0,1,1.53-.55c6.72-.06,13.46.18,20.15-.27,1.8-.12,3.46-2.28,5.19-3.51-1.79-1.12-3.55-3.18-5.36-3.21-16-.26-32.05-.15-48.08-.15-1.21,0-2.61.39-3.58-.09a35.93,35.93,0,0,1-4.9-3.42c1.61-1.19,3.17-3.33,4.82-3.4,8.42-.35,16.86-.16,25.66-.16.16-1.66.29-3.1.49-5.16h20.48c2.66,0,5.91.07,5.35-3.59-.21-1.35-3.37-3.13-5.25-3.2-8.6-.35-17.23-.1-25.85-.19-2.6,0-6.2.82-6.47-3.21-.27-4.22,3.4-3.39,6-3.71A6.35,6.35,0,0,0,164.72,513.41Zm18.22,71.68a8.24,8.24,0,0,0-8.15,8.2,8.14,8.14,0,0,0,8.26,8,8.12,8.12,0,0,0-.11-16.23ZM269.76,593a8,8,0,0,0-8.33-7.89,8.11,8.11,0,0,0-7.89,8.39,8,8,0,0,0,8.39,7.83A7.93,7.93,0,0,0,269.76,593Z"/><path class="cls-2" d="M301,481.13v-1.4h12.44v1.4L310.2,512h-5.87Zm.56,36.35h11.33v11.18H301.6Z"/><path class="cls-2" d="M322.29,504.33v-.14c0-13.91,10.49-25.3,25.51-25.3,9.23,0,14.75,3.08,19.3,7.55l-6.85,7.9c-3.78-3.43-7.62-5.52-12.52-5.52-8.24,0-14.19,6.85-14.19,15.23v.14c0,8.39,5.8,15.38,14.19,15.38,5.59,0,9-2.23,12.86-5.73l6.86,6.92c-5,5.38-10.63,8.74-20.07,8.74A24.7,24.7,0,0,1,322.29,504.33Z"/><path class="cls-2" d="M372.48,504.33v-.14c0-13.91,11-25.3,26.07-25.3s25.94,11.26,25.94,25.16v.14c0,13.92-11,25.31-26.08,25.31S372.48,518.24,372.48,504.33Zm40.75,0v-.14c0-8.38-6.15-15.37-14.82-15.37s-14.67,6.85-14.67,15.23v.14c0,8.39,6.15,15.38,14.81,15.38S413.23,512.72,413.23,504.33Z"/><path class="cls-2" d="M434.07,479.73h11.6l12.86,20.69,12.86-20.69H483v48.93H472.3V496.71l-13.77,20.9h-.28l-13.63-20.68v31.73H434.07Z"/><path class="cls-2" d="M494.74,479.73h20c11.67,0,18.73,6.92,18.73,16.92v.14c0,11.32-8.8,17.19-19.78,17.19H505.5v14.68H494.74ZM514,504.41c5.38,0,8.53-3.22,8.53-7.42v-.13c0-4.83-3.36-7.42-8.74-7.42H505.5v15Z"/><path class="cls-2" d="M541.43,479.73H563.8c6.22,0,11,1.75,14.26,5a15.39,15.39,0,0,1,4.19,11.19V496c0,7.89-4.26,12.86-10.48,15.16l12,17.48H571.14L560.65,513H552.2v15.66H541.43ZM563.1,503.5c5.25,0,8.25-2.8,8.25-6.92v-.15c0-4.61-3.22-7-8.46-7H552.2V503.5Z"/><path class="cls-2" d="M608.75,479.38h9.92l21,49.28H628.39l-4.47-11H603.23l-4.48,11h-11Zm11.32,28.8-6.5-15.87-6.5,15.87Z"/><path class="cls-2" d="M684.94,479.38h9.93l21,49.28H704.58l-4.47-11H679.42l-4.47,11H664Zm11.32,28.8-6.5-15.87-6.5,15.87Z"/><path class="cls-2" d="M763.93,530.13l-5.38-4.83A26.66,26.66,0,0,1,744,529.5c-15.1,0-25.94-11.26-25.94-25.17v-.14c0-13.91,11-25.3,26.08-25.3s25.93,11.26,25.93,25.16v.14a25.12,25.12,0,0,1-4.33,14.05l5,4.27Zm-13.35-11.89-8-6.78,6.85-7.68,8,7.26a17.26,17.26,0,0,0,1.33-6.71v-.14c0-8.38-6.16-15.37-14.82-15.37s-14.68,6.85-14.68,15.23v.14c0,8.39,6.15,15.38,14.82,15.38A14.71,14.71,0,0,0,750.58,518.24Z"/><path class="cls-2" d="M778.89,507.69v-28h10.76v27.68c0,8,4,12.09,10.56,12.09s10.55-4,10.55-11.74v-28h10.77v27.61c0,14.82-8.32,22.09-21.46,22.09S778.89,522.09,778.89,507.69Z"/><path class="cls-2" d="M833,479.73h10.76v48.93H833Zm9.5-14.82,9.16,4-9.51,7H834Z"/><path class="cls-2" d="M888.35,489.66H873.47v-9.93H914v9.93H899.12v39H888.35Z"/><path class="cls-2" d="M921.49,507.69v-28h10.76v27.68c0,8,4,12.09,10.56,12.09s10.55-4,10.55-11.74v-28h10.76v27.61c0,14.82-8.31,22.09-21.45,22.09S921.49,522.09,921.49,507.69Z"/><path class="cls-2" d="M996.07,479.73h10.77v39.14h24.39v9.79H996.07Z"/><path class="cls-2" d="M1039.83,479.73h10.76v48.93h-10.76Z"/><path class="cls-2" d="M1062.83,479.73h22.72c5.59,0,10,1.54,12.79,4.33a11.26,11.26,0,0,1,3.35,8.32v.14c0,5.52-2.93,8.6-6.43,10.56,5.67,2.16,9.16,5.45,9.16,12v.14c0,9-7.27,13.42-18.31,13.42h-23.28Zm20.41,19.78c4.75,0,7.76-1.54,7.76-5.17v-.14c0-3.21-2.52-5-7.06-5h-10.63v10.34Zm2.87,19.71c4.75,0,7.61-1.67,7.61-5.31v-.14c0-3.28-2.44-5.31-8-5.31h-12.45v10.76Z"/><path class="cls-2" d="M1113.3,479.73h22.36c6.22,0,11,1.75,14.26,5a15.36,15.36,0,0,1,4.2,11.19V496c0,7.89-4.27,12.86-10.49,15.16l11.95,17.48H1143L1132.52,513h-8.46v15.66H1113.3ZM1135,503.5c5.25,0,8.25-2.8,8.25-6.92v-.15c0-4.61-3.21-7-8.45-7h-10.7V503.5Z"/><path class="cls-2" d="M1161.67,504.33v-.14c0-13.91,11-25.3,26.07-25.3s25.93,11.26,25.93,25.16v.14c0,13.92-11,25.31-26.07,25.31S1161.67,518.24,1161.67,504.33Zm40.75,0v-.14c0-8.38-6.15-15.37-14.82-15.37s-14.68,6.85-14.68,15.23v.14c0,8.39,6.15,15.38,14.82,15.38S1202.42,512.72,1202.42,504.33Z"/><path class="cls-2" d="M334,542.22h19l30.2,71.45H362L357,600.9H329.5l-5.06,12.77H303.86Zm17.23,43.38-7.9-20.07-8,20.07Z"/><path class="cls-2" d="M386.37,582.55V542.72h19.87v39.43c0,10.24,5.17,15.1,13.07,15.1s13.18-4.66,13.18-14.59V542.72h19.86v39.33c0,22.8-13.07,32.94-33.24,32.94S386.37,604.75,386.37,582.55Z"/><path class="cls-2" d="M481.35,560H460.17V542.72h62.12V560H501v53.72H481.35Z"/><path class="cls-2" d="M525.55,578.4v-.2c0-20.37,16.42-36.9,38.31-36.9S602,557.62,602,578v.21c0,20.37-16.42,36.89-38.31,36.89S525.55,598.77,525.55,578.4Zm56.25,0v-.2c0-10.34-7.3-19.16-18.14-19.16s-18,8.72-18,19v.21c0,10.23,7.4,19.15,18.25,19.15S581.8,588.64,581.8,578.4Z"/><path class="cls-2" d="M609.78,578.4v-.2c0-20.68,16.22-36.9,38.11-36.9,12.47,0,21.28,3.76,28.78,10.24l-11.55,14c-5.07-4.26-10-6.69-17.13-6.69-10.24,0-18.14,8.51-18.14,19.36v.2c0,11.55,8,19.76,19.26,19.76,4.86,0,8.51-1,11.35-2.94v-8.61H646.57V572.22h32.54V604a47.28,47.28,0,0,1-30.81,11.05C626.2,615.09,609.78,599.89,609.78,578.4Z"/><path class="cls-2" d="M690.06,542.72h33.55c10.84,0,18.34,2.84,23.11,7.6,4.15,4.16,6.28,9.53,6.28,16.53v.2c0,10.94-5.78,18.14-14.59,21.89l16.92,24.73h-22.6l-14.29-21.49h-8.72v21.49H690.06Zm32.74,34.06c6.59,0,10.54-3.24,10.54-8.41v-.21c0-5.67-4.16-8.51-10.64-8.51h-13v17.13Z"/><path class="cls-2" d="M786.15,542.22h19l30.2,71.45H814.23l-5.07-12.77H781.69l-5.06,12.77H756.05Zm17.23,43.38-7.9-20.07-8,20.07Z"/><path class="cls-2" d="M842.21,542.72H899V560H861.88V572h33.54v16.32H861.88v25.34H842.21Z"/><path class="cls-2" d="M908.5,542.72h19.66v70.95H908.5Z"/><path class="cls-2" d="M965.67,542.22h19l30.2,71.45H993.74l-5.06-12.77H961.21l-5.07,12.77H935.57ZM982.9,585.6,975,565.53l-8,20.07Z"/><path class="cls-2" d="M1021.73,542.72h27.46c25.24,0,39.94,14.6,39.94,35.07v.2c0,20.48-14.9,35.68-40.34,35.68h-27.06Zm19.66,17.33v36.19h8c11.85,0,19.66-6.49,19.66-17.94v-.2c0-11.36-7.81-18.05-19.66-18.05Z"/><path class="cls-2" d="M1097,578.4v-.2c0-20.37,16.42-36.9,38.31-36.9s38.11,16.32,38.11,36.69v.21c0,20.37-16.42,36.89-38.31,36.89S1097,598.77,1097,578.4Zm56.25,0v-.2c0-10.34-7.29-19.16-18.14-19.16s-18,8.72-18,19v.21c0,10.23,7.4,19.15,18.24,19.15S1153.29,588.64,1153.29,578.4Z"/><path class="cls-2" d="M1182.79,551.34v-8.62h21.9v8.62l-5.88,39.22h-10Zm1,45.1h20v17.23h-20Z"/></svg>