<svg id="Capa_1" data-name="Capa 1" xmlns="http://www.w3.org/2000/svg" viewBox="0 0 627.18 381.48"><defs><style>.cls-1{fill:#231f20;}.cls-2{fill:#fff;}.cls-3{fill:#ff5100;}</style></defs><title>Logo Poder Y Poder</title><rect class="cls-1" y="190.66" width="627.18" height="190.81"/><rect class="cls-2" width="627.18" height="190.81"/><path class="cls-1" d="M194.79,114l1,1.13h1l6.31-1.13,38.74,3.17,6.2-2h5.3v1l-1.13,6.32Q253.59,156,256.52,156q-2.14,2.35-2.14,12.53l-1,1-1.13,3.16,1.13,6.32-2.14,9.49,2.14,4.18-2.14,6.2,3.15,5.3-1,1v5.31l1,1q-2.15,8.69-4.17,9.36l6.31,11.63v1l-1.13,25.17c1.65,1.35,4.1,2,7.33,2l3.16,8.47h-1q-14.75,2.82-17.79,5.19l-21-5.19H215.63l-7.32,4.17Q189.5,271.44,189.5,267q0-4.17,12.61-5.19l5.19-8.47v-4.17l-3.16-10.5v-3.16l2.14-8.36L200,215.68v-1l3.16-15.8L201,194.68l2.14-7.33-1-4.18,1-8.35h-1l1-1v-1.13l-1-7.34,1-6.21-1-1.13v-1l2-8.35V137.11q-4.15,0-8.34-11.62-5.18-1-7.31-4.18Z" transform="translate(-174.92 -105.85)"/><path class="cls-1" d="M287.84,113q9.11,2.39,12.61,9.49,23,7.22,23,25.06l2,8.47-1,3.15L328.61,179q0,7-25.12,24.16-23.31,11.5-37.61,11.51c0-2.11-.69-3.15-2-3.15l3.05-6.33-2-4.17q7.33-5.43,11.5-22V173.8L274.2,156q6.32-4.53,6.31-8.47,0-9.83-17.79-23v-6.32l3.16-3.05,8.32,2Q277,114.31,287.84,113Z" transform="translate(-174.92 -105.85)"/><path class="cls-1" d="M381,147.62a4,4,0,0,1,3.31,4.24,19,19,0,0,1-10,11.69l-1.65,10v7.55l.83,5.9c-2.21.3-3.31,1.13-3.31,2.48l.83.92v.83l-1.66,5.81,1.66,5.06-.83,4.23,1.65,1.66v1.66l-1.65,2.49v2.58l1.65,2.48v3.32l-.82.91,1.65,3.32-1.65,5.07V245l-1.66,2.49v4.14q0,3.78,12.5,18.51,0,9.21-3.31,9.21-3.5-3.31-16.72-5.9Q343,264,337.39,249.1c0-2.45-1.37-6.08-4.13-10.86q0-2-5.88-9.21l-.83-4.24q3.31-5.06,3.31-7.55L329,206.37q3.41-7.45,5.06-25.23l2.48-2.48-.83-7.56q3.4,0,3.4-4.23c5,0,7.53-2.21,7.53-6.63l8.37-5.9,5,.83Q365.24,151.86,381,147.62Z" transform="translate(-174.92 -105.85)"/><path class="cls-1" d="M398.5,149.28q15.08,2.76,15.07,8.38,1.85,1.76,9.19,1.75,5.88,7.83,5.88,12.52,6.25,0,13.42,33.52l.83.92q-3.31,6.36-3.31,20.08l.83,7.55q-2.4,8.38-5.88,8.38,0,16.49-17.56,24.31-5.5,8.38-22.6,8.38-3.78,4.24-7.54,4.24l-.82-2.49q0-9.12,10-14.27c1.16-6.26,2.58-9.61,4.23-10l-.92-.92v-1.66l.92-8.38q-5.06-15.11-5.06-22.65,0-4.6,5.06-8.38l.83-6.72L396,192.93l3.31-12.62L396,174.42l.83-4.15v-2.48q0-6.27-8.36-11.79v-.83l.82-4.23h2.49Z" transform="translate(-174.92 -105.85)"/><path class="cls-1" d="M461.19,147.62,473.13,151h5.15a65.8,65.8,0,0,1,17.18-2.58V152q-3.49,3.87-3.49,6l.92,6.82-.92.92v.83l1.74,6.91v10.22c-2.26,3.07-3.4,5.65-3.4,7.73v1.75l5.15,12-5.15,11.14,4.23,6.9V224l-1.65,9.49v16.3l1.65,2.58v4.23l-.83,5.16.83.92v.83l-1.65,6.81,1.65,6.91-20.49,2.58L465.51,278l-3.5.92-4.22-.92-6,1.75-2.57-.83-2.57.83c-1.17-1.41-2-4.27-2.57-8.56q7.71,0,7.71-13.72v-1.76l-.92-7.73.92-12.89V224l-3.49-10.31v-3.41q1.74-1.65,4.32-21.46l1.65-2.57-1.65-5.16.83-6q-1.75-17.12-6.8-17.13c-2.09,0-3.52-1.13-4.32-3.4q0-4.14,18-6.08Z" transform="translate(-174.92 -105.85)"/><path class="cls-1" d="M510.81,148.45l12,8.56q9.74,0,21.41,14.64,4,16.31,9.37,16.31.92,9.39,2.57,11.14V206l-.83,7.65.83,3.5-1.65,3.41,1.65,3.4q-7.35,32.61-14.52,32.6l.83,4.33q-7,1.2-16.26,12.89-16.28,2.49-17.92,5.16-6.9,0-6.9-10.31l10.3-6v-1.75h.82l-.82-25.78V221.39l.82-6-.82-.83-.92-2.58H510l1.75-5.16-.92-5.15.92-.83h.82l-.82-6.91q1.92-2.3,2.57-12.89l-2.57-3.41.82-3.4c-.86,0-2.26-2.31-4.22-6.91l.82-2.58-.82-5.16h.82l-.82-2.58h-5.15v-7.64Z" transform="translate(-174.92 -105.85)"/><path class="cls-1" d="M578.69,147.62a65.83,65.83,0,0,0,20.5,5.16l6-1.75q1.65,0,6,6.81v7.74l-3.4,5.06V175l.83,10.23-1.75,12,6,13.72q0,4.79-7.62,24.77v.83l1.65,2.58-.82,3.4,1.74,8.57-.92.83v.82l.92.83v2.58h-.92l.92,6v14.55l-.92.83v.83l-.82-.83h-.83l-15.35,2.58-11.12-6-10.2,4.24h-1.74q-4.69,0-8.46-5.9,0-3.5,7.63-5.15l.83-.84v-.92l-1.66-3.4,3.4-9.4q0-7.55-2.57-11l1.75-6.91v-8.47l-.92-3.5.92-3.41-1.75-12,2.57-9.4-2.57-13.63,2.57-13.72q-4.68-9-11.94-12.8,0-9.39,22.14-9.39Z" transform="translate(-174.92 -105.85)"/><path class="cls-1" d="M623.08,147.62l3.4,1.75.83-.92h.82l9.38,1.75,9.37-.83,6.89,1.66v4.23l.83,27.36a12.66,12.66,0,0,1-8.55,5.15l-6.8-8.56v-2.58l.83-.83q-5.43-10.22-11-10.22l-.92-3.41-7.63.83q-4.31-.56-4.31-5.16V151C616.19,149.93,618.48,148.79,623.08,147.62Z" transform="translate(-174.92 -105.85)"/><path class="cls-1" d="M633.28,185.2v5.15q2.29,0,4.23,28.18l-.83,2.58,2.57,6.82-.83.82.83,4.33q-1.11,6.82-5.14,6.82-3.23-.19-10.21-11.15-1.74,0-1.74-5.07l-6-6c0-8,2-12,6-12,0-1.17.85-1.75,2.57-1.75l4.32-18,.83-.82Z" transform="translate(-174.92 -105.85)"/><path class="cls-1" d="M651.2,238.14q3.94,0,5,13.73h.92l-2.57,6.81.83.83-.83,4.33v13.63l-3.4.83L635,275.81,617.1,278.3l.83-2.49-.83-5.16v-.83c0-1.16,2.55-1.75,7.63-1.75q1.11-2.58,11.95-8.56,6.52-16.11,12.77-21.37Z" transform="translate(-174.92 -105.85)"/><path class="cls-1" d="M704.92,147.62H710c2.82,0,4.5,1.14,5.06,3.41l-.83,2.48,1.65,9.4L715,168l1.74,2.49-.92.92v4.24a36,36,0,0,1-3.3,15.19v.83q4.22,10.41,4.22,16.94L715,215.4v9.3l-3.4,10.13.92,6-.92,3.41q2.39,0,4.22,17.78l.92,4.23,5.88,4.24v4.23L721,276.36H710l-5.88,1.75L699,276.36v.83l-5.06-1.66h-.82l-12.68,2.58-4.23-.92-2.57,1.75c-6.75-.43-10.11-1.29-10.11-2.58q0-11.88,6.8-11.88L677,252.69q0-6-5.06-14.45v-.83l1.66-7.64-.83-15.2.83-6.82-.83-2.48,2.57-12.71-.83-5.16.83-5.06-.83-.83v-.83l.83-4.24-.83-3.4.83-.83-2.57-2.58,1.74-2.49v-.91q0-1.48-8.45-5.9L664.3,151l5.06-1.75h3.4l3.4,2.58H677l.82-.83,6.8,1.66L699,151v.83Z" transform="translate(-174.92 -105.85)"/><path class="cls-1" d="M725.23,149.28l7.53,1.75H743q10.85,0,15.16,5.89c3.13,0,5.39,2,6.81,6q3,0,6.7,10.13h.92l-1.74,22,.82.82q-1.85.19-11.76,12.71-4,0-11.85,8.47v1.76h5.05q17,0,20.31,16l.83.92-.83,4.24.83,4.23Q772.74,246,771.63,256c.86,2.27,1.72,3.41,2.58,3.41H775l11-3.41,2.48,5.16q-10.93,16-19.39,16c0,1.72-.58,2.58-1.75,2.58l-4.22-.83-4.23.83q-11.22-.28-23.62-13.54l-.82-6.81.82-5.9-3.4-8.47,1.66-5.06q0-17-6.71-17-3.39,0-3.4-11.88,7.63-2.11,7.63-8.47l2.48-13.53-2.48-11.88.82-4.24q0-8.11-8.45-14.37l-.83-8.47Z" transform="translate(-174.92 -105.85)"/><path class="cls-2" d="M216.65,336.53c0-7.84.21-9.11-7.19-11.45-2.76-.84-4.66-2.75-4.66-5.72,0-6.14,7-6.57,7.83-6.57h55.83v134.8c0,7.84-.21,9.12,7.19,11.45,2.75.84,4.66,2.75,4.66,5.71,0,6.15-7,6.57-7.83,6.57H212.63c-.84,0-7.83-.42-7.83-6.57,0-3,1.9-4.87,4.66-5.71,7.4-2.33,7.19-3.61,7.19-11.45ZM278,312.79c20.09,0,31.93,2.12,41.87,7.84C335.5,330,341.64,344,341.64,361.75s-6.14,31.8-21.79,41.12c-9.94,5.72-21.78,7.84-41.87,7.84V398.42c12.48-2.33,13.11-11,13.11-21.41V345c0-9.53-1.9-18.22-13.11-19.92Z" transform="translate(-174.92 -105.85)"/><path class="cls-2" d="M391.14,357c-7.6,2.75-8.25,7.62-8.25,11.67v84c0,4.05.65,8.92,8.25,11.67v9.41c-34.31-3.08-50.33-30.81-50.33-63.09s16-60,50.33-63.09Zm7.29,107.36c7.6-2.75,8.25-7.62,8.25-11.67v-84c0-4.05-.65-8.92-8.25-11.67v-9.41c34.3,3.08,50.33,30.81,50.33,63.09s-16,60-50.33,63.09Z" transform="translate(-174.92 -105.85)"/><path class="cls-2" d="M495.18,471.32h-41.1c-3.56,0-7.61-.32-7.61-5,0-2.27,1.46-3.73,3.56-4.38,5.67-1.78,5.51-2.76,5.51-8.76v-85c0-2.44.32-6.82-2.75-7.79-3.24-1.13-6.32-1.62-6.32-5.68,0-4.22,4-4.7,7.29-4.7h41.42ZM502.47,350c27.51-.32,50.49,18.82,52.43,60.66,1.78,38.11-25.57,60.65-52.43,60.65v-9.4c9.87-1.3,10.35-10.54,10.35-16.71V376.12c0-6.16-.48-15.41-10.35-16.7Z" transform="translate(-174.92 -105.85)"/><path class="cls-2" d="M561.84,350h42.73V471.32H561.84c-.64,0-6-.32-6-5,0-2.27,1.45-3.73,3.56-4.38,5.66-1.78,5.5-2.76,5.5-8.76v-85c0-6,.16-7-5.5-8.76-2.11-.65-3.56-2.11-3.56-4.39C555.86,350.33,561.2,350,561.84,350Zm50,0H648v32.92c0,.81-.17,3.9-5,3.9-2.75,0-3.56-1.63-4.37-4.06-4.21-13.13-12.46-21.09-26.71-23.35Zm0,54.17c6.8-1.78,9.88-8.11,11.33-14.27.81-2.76,1.78-5.36,5.18-5.36,5,0,4.21,5.85,4.21,7.14v35c0,1.3.81,7.14-4.21,7.14-3.4,0-4.37-2.59-5.18-5.36-1.45-6.15-4.53-12.48-11.33-14.26Zm0,57.74C625,460.3,635,451.38,639.37,438.4c1.13-2.43,2.1-5,5-5,5.17,0,4.69,4.87,4.69,5.52v32.43H611.85Z" transform="translate(-174.92 -105.85)"/><path class="cls-2" d="M663.46,368.18c0-6,.16-7-5.49-8.76-2.11-.65-3.57-2.11-3.57-4.39,0-4.7,5.35-5,6-5h42.72V453.16c0,6-.15,7,5.51,8.76,2.1.65,3.56,2.11,3.56,4.38,0,4.7-5.34,5-6,5h-45.8c-.64,0-6-.32-6-5,0-2.27,1.46-3.73,3.57-4.38,5.65-1.78,5.49-2.76,5.49-8.76ZM710.4,350h.81c10.52,0,21.52-.32,31.23,4.38,10.85,5.35,16.35,14.27,16.51,26.6.33,18.65-12,26.76-28.48,30.65V412c14.4,2.11,28.16,6.32,28.48,23.51v14.27c0,1.46-.49,4.71,1.62,4.71,2.59,0,3.07-4.71,7-4.71a5.34,5.34,0,0,1,4.69,4.71c0,4.7-5.34,10.7-8.9,13.46-5.5,4.54-11.33,5.84-18.29,5.84S731.77,472,726.74,467c-5.66-5.84-6.47-13-6.47-20.6v-11c0-7.46-.16-16.54-9.87-17.51v-9.57c8.73-.81,9.87-6.17,9.87-14.12V374.5c0-8.11-1.78-12-9.87-14.92Z" transform="translate(-174.92 -105.85)"/><rect class="cls-2" x="82.79" y="163.82" width="65.56" height="63.45"/><path class="cls-2" d="M356.68,307.38a75,75,0,0,0,12.07-34.11l.71-6.56H333.23l-.7,5.1a55.52,55.52,0,0,1-1.18,6.08l-7.51-9.23c14.58-9.53,22.25-22.22,22.25-37,0-23.9-18-40-44.93-40-21.11,0-42.94,14.35-42.94,38.36,0,11.61,4.54,20.27,10.4,28.26C250,268.83,239.9,284,239.9,301.49c0,28.56,21.35,48.51,51.9,48.51a58.61,58.61,0,0,0,39.38-14.27l9.37,11.49h50.32ZM295.73,229a6.59,6.59,0,0,1,6.82-6.62c3.75,0,7,3.55,7,7.61,0,5.51-2.42,8.68-7.5,12.4C298.42,238,295.73,234.11,295.73,229ZM291,286l18,22c-5.25,4.89-10.11,6.95-16,6.95-7.67,0-14.39-6-14.39-12.79C278.61,294.67,284.67,289.42,291,286Z" transform="translate(-174.92 -105.85)"/><path class="cls-3" d="M331.82,327.17c-11.35,11.14-23.89,16.92-40,16.92-25.68,0-46-15.73-46-42.6,0-19.91,15.12-33.44,31.85-41.21-7.57-9.35-13.54-17.91-13.54-30.26,0-19.7,18.12-32.44,37-32.44,21.5,0,39,11.54,39,34,0,16.52-10.94,27.87-25.28,35.43l18.32,22.49a50.78,50.78,0,0,0,5.18-16.91h24.48c-1.4,12.74-5.77,25.08-13.74,35L378,341.3H343.36ZM292.6,278.6c-10,4.38-19.91,11.94-19.91,23.49,0,10.35,9.56,18.71,20.31,18.71,10.15,0,17.32-5.18,23.88-12.54Zm9.95-62.11A12.53,12.53,0,0,0,289.81,229c0,8.95,5.77,14.73,11.15,21.3,8-5.18,14.53-10,14.53-20.31C315.49,222.66,309.52,216.49,302.55,216.49Z" transform="translate(-174.92 -105.85)"/></svg>